<?xml version="1.0" encoding="UTF-8" standalone="no"?>
<!-- Created with Inkscape (http://www.inkscape.org/) -->

<svg
   width="210mm"
   height="254.451mm"
   viewBox="0 0 210 254.451"
   version="1.1"
   id="svg1"
   xml:space="preserve"
   inkscape:version="1.4.2 (f4327f4, 2025-05-13)"
   sodipodi:docname="logo_monochrome.svg"
   xmlns:inkscape="http://www.inkscape.org/namespaces/inkscape"
   xmlns:sodipodi="http://sodipodi.sourceforge.net/DTD/sodipodi-0.dtd"
   xmlns="http://www.w3.org/2000/svg"
   xmlns:svg="http://www.w3.org/2000/svg"><sodipodi:namedview
     id="namedview1"
     pagecolor="#ffffff"
     bordercolor="#000000"
     borderopacity="0.25"
     inkscape:showpageshadow="2"
     inkscape:pageopacity="0.0"
     inkscape:pagecheckerboard="0"
     inkscape:deskcolor="#d1d1d1"
     inkscape:document-units="mm"
     inkscape:zoom="0.73512619"
     inkscape:cx="558.40753"
     inkscape:cy="629.14369"
     inkscape:window-width="2560"
     inkscape:window-height="1369"
     inkscape:window-x="-8"
     inkscape:window-y="-8"
     inkscape:window-maximized="1"
     inkscape:current-layer="layer1" /><defs
     id="defs1" /><g
     inkscape:label="Ebene 1"
     inkscape:groupmode="layer"
     id="layer1"><path
       style="fill:#000000;stroke-width:1.085"
       d="m 101.79051,254.17571 c -2.38418,-0.55973 -4.839764,-2.01827 -6.906602,-4.10231 -1.114654,-1.12394 -2.325579,-2.59122 -2.690931,-3.26061 l -0.664292,-1.21708 h 13.501115 13.50112 l -0.63446,1.07653 c -0.34895,0.59208 -1.50588,1.99437 -2.57095,3.11618 -2.07307,2.18355 -4.41131,3.63723 -6.92853,4.30749 -1.64671,0.43847 -4.91076,0.47789 -6.60647,0.0798 z M 79.063519,240.88582 c -2.772328,-1.20755 -3.853465,-5.36542 -2.21058,-8.50153 1.460704,-2.78837 -0.833931,-2.57759 28.061381,-2.57759 28.65712,0 26.49286,-0.18485 28.10367,2.40027 2.00603,3.2194 0.74085,7.92505 -2.3625,8.78701 -0.67877,0.18853 -9.87632,0.28901 -25.88471,0.2828 -19.998966,-0.008 -25.002195,-0.0839 -25.707261,-0.39096 z M 78.35573,224.85468 c -2.650168,-1.80098 -3.065028,-6.96383 -0.745916,-9.28293 0.506402,-0.5064 1.431397,-1.06252 2.055554,-1.23581 1.514411,-0.42043 49.189812,-0.44292 50.698412,-0.0239 1.26221,0.35059 2.90571,2.07924 3.3996,3.57577 0.78975,2.39295 -0.14551,5.67158 -1.97187,6.91264 l -1.03037,0.70015 H 105.03367 79.30619 Z m 1.726778,-15.19331 c -1.487416,-0.42267 -2.872094,-1.59947 -3.451017,-2.93291 -0.320911,-0.73917 -0.581267,-2.3046 -0.697493,-4.1937 -0.72261,-11.74566 -2.610055,-26.0419 -3.893838,-29.4935 -2.007999,-5.39873 -4.360052,-8.46081 -12.664947,-16.4882 C 52.366046,149.7781 49.416657,146.39113 46.044563,141.24468 39.796947,131.70962 35.846548,120.68115 34.700082,109.57395 34.216151,104.88539 34.503958,96.219865 35.291711,91.761436 37.984617,76.520368 44.852701,63.59121 55.941979,52.887347 66.986847,42.226346 81.01117,35.662439 96.626765,33.845335 c 4.867135,-0.566363 13.866515,-0.4129 18.622175,0.317558 14.81433,2.275444 27.91909,8.966869 38.77607,19.799452 10.94209,10.917501 17.32194,23.519498 19.79714,39.104857 0.63488,3.997542 0.86646,13.238908 0.43766,17.464398 -0.91038,8.97106 -3.1755,16.63108 -7.32694,24.77773 -4.30516,8.44831 -9.03731,14.25203 -18.61273,22.82747 -4.28353,3.83622 -7.8464,8.45265 -10.02061,12.98384 -1.02945,2.14542 -1.28059,3.10857 -2.11133,8.0971 -1.11469,6.69365 -1.99216,14.35584 -2.4401,21.30752 -0.36299,5.63334 -0.72862,6.91344 -2.31719,8.11275 -0.5319,0.40157 -1.48384,0.87128 -2.11539,1.04379 -1.51055,0.41262 -47.776638,0.39341 -49.233012,-0.0204 z M 16.641425,159.89329 c -2.846119,-1.27839 -4.230156,-4.6283 -3.05331,-7.39021 0.602793,-1.41472 1.307826,-1.91424 7.644423,-5.41632 5.821309,-3.21728 5.905451,-3.2525 7.774732,-3.25468 1.601808,-0.002 2.104825,0.12991 3.301342,0.86486 1.906573,1.17108 2.473822,2.319 2.352703,4.76104 -0.157921,3.18413 -0.567715,3.5858 -7.574788,7.42465 -5.516478,3.02222 -6.135676,3.29279 -7.719961,3.37341 -1.117963,0.0568 -2.074325,-0.0704 -2.725141,-0.36275 z m 172.817065,0.2281 c -1.23347,-0.4835 -11.43034,-6.21908 -12.01973,-6.76092 -2.60359,-2.39356 -2.13763,-7.40323 0.84446,-9.07925 0.98176,-0.55179 1.4826,-0.63937 3.08695,-0.53982 1.80938,0.11225 2.24649,0.30013 7.9201,3.40422 5.38751,2.94753 6.08865,3.41664 6.81799,4.56166 0.67334,1.05709 0.81295,1.5895 0.81295,3.10029 0,2.11322 -0.46346,3.19342 -1.79391,4.18115 -1.58532,1.17696 -4.21523,1.70242 -5.66881,1.13267 z M 2.7163355,110.13729 c -3.36878477,-2.08088 -3.66165889,-7.03441 -0.5559759,-9.40324 l 1.0854235,-0.827886 h 7.9392079 7.939196 l 1.085424,0.827886 c 2.619538,1.99803 2.853138,5.8406 0.505328,8.31232 -1.511883,1.59166 -1.712413,1.62512 -9.730999,1.62396 -6.7083181,-9.7e-4 -7.4875653,-0.0512 -8.2676045,-0.53304 z M 190.16898,109.97394 c -1.74352,-1.04526 -2.52545,-2.65034 -2.38278,-4.89108 0.14096,-2.21358 1.13095,-3.88471 2.80829,-4.74042 1.05107,-0.536215 1.67951,-0.57981 8.35747,-0.57981 6.75151,0 7.28913,0.0383 8.26972,0.58944 2.80089,1.57418 3.66359,5.63174 1.757,8.26371 -1.42529,1.96756 -1.86612,2.05597 -10.23489,2.05291 -7.32892,-0.002 -7.43475,-0.0113 -8.57481,-0.69475 z M 22.811442,64.435379 c -8.680133,-4.662585 -9.011644,-4.911632 -9.63898,-7.241412 -1.008475,-3.745161 1.725997,-7.408388 5.555776,-7.442801 1.781723,-0.01601 1.701216,-0.05399 8.657315,4.0837 3.045596,1.811606 5.528402,3.487542 5.863244,3.957788 1.959608,2.752014 1.094863,7.090183 -1.701563,8.536274 -0.461613,0.238707 -1.594125,0.420125 -2.62123,0.419896 -1.71366,-3.79e-4 -2.034202,-0.121655 -6.114562,-2.313445 z m 155.698108,1.518306 c -1.1877,-0.613578 -1.68765,-1.087121 -2.18583,-2.070338 -1.12175,-2.213935 -0.63048,-5.220448 1.11042,-6.795601 0.71572,-0.647576 8.05259,-4.754403 11.01842,-6.167581 2.21985,-1.057731 3.63562,-1.062197 5.63487,-0.01777 2.03978,1.065592 2.83378,2.264001 2.83378,4.27709 0,1.740757 -0.42854,2.754087 -1.62505,3.842623 -0.95463,0.868494 -10.82608,6.989575 -11.97891,7.427883 -1.40243,0.533201 -3.16764,0.350977 -4.8077,-0.496301 z M 59.269718,34.617516 c -2.224251,-0.536778 -2.617064,-1.02543 -6.346579,-7.895189 -2.823529,-5.200913 -3.115752,-5.880248 -3.210678,-7.463898 -0.248954,-4.153444 3.08484,-6.700466 7.203186,-5.503231 0.859917,0.249984 1.832132,0.782662 2.260609,1.238596 1.203678,1.280774 6.869224,11.952309 7.046252,13.272208 0.357898,2.668322 -1.531825,5.82664 -3.794994,6.342625 -1.314815,0.299768 -1.945135,0.301543 -3.157796,0.0089 z m 88.273072,0.01439 c -3.14369,-1.02617 -4.55821,-3.548255 -3.72946,-6.649588 0.53661,-2.008051 6.19503,-12.167283 7.33369,-13.167048 1.38715,-1.217919 3.03078,-1.61858 4.98957,-1.216284 2.6761,0.549617 4.13591,2.446909 4.14281,5.384371 0.004,1.670803 -0.12379,1.991586 -2.68582,6.746215 -3.93943,7.310806 -4.06318,7.500046 -5.38329,8.232914 -1.29383,0.718284 -3.53367,1.039526 -4.6675,0.66942 z M 101.74135,21.319925 c -2.355277,-1.601767 -2.424956,-1.886632 -2.424956,-9.913795 0,-7.5659228 0.05458,-7.8782109 1.683446,-9.6327962 2.53667,-2.73246142 7.02504,-2.22888568 8.65768,0.9713562 0.5218,1.0228384 0.56765,1.7073076 0.56765,8.477158 0,7.094865 -0.0236,7.406353 -0.64283,8.508239 -0.92716,1.649654 -2.56514,2.522826 -4.73256,2.522826 -1.48639,0 -1.93418,-0.134404 -3.10843,-0.932988 z"
       id="path1" /></g></svg>
